<?xml version="1.0" encoding="utf-8"?>
<!-- Generator: Adobe Illustrator 24.3.0, SVG Export Plug-In . SVG Version: 6.00 Build 0)  -->
<svg version="1.1" id="レイヤー_1" xmlns="http://www.w3.org/2000/svg" xmlns:xlink="http://www.w3.org/1999/xlink" x="0px"
	 y="0px" viewBox="0 0 299.6 174.4" style="enable-background:new 0 0 299.6 174.4;" xml:space="preserve">
<style type="text/css">
	.st0{fill:#221815;}
</style>
<path class="st0" d="M235,103.7h27.8v29.2H235V103.7z M237.8,130.2h22.3v-23.7h-22.3V130.2z"/>
<path class="st0" d="M154.9,96.5l17.9,36.4h3.1l-8.9-18.1h6.3v-2.8h-7.7l-7.7-15.6h15.4V56.9h-21.7v-7.4h-2.8v7.4h-21.7v76h11.8
	v-2.8h-9V96.5H154.9z M129.8,78.2h28v-2.8h-28V59.7h40.7v34.1h-40.7V78.2z"/>
<polygon class="st0" points="287.5,114.9 247.1,81.1 265.4,56.9 241.5,56.9 232.4,67.5 235.9,67.5 242.9,59.7 259.8,59.7 
	231.9,96.4 235.4,96.4 245.4,83.3 283.2,114.9 "/>
<path class="st0" d="M102,56.9H85.9v-7.4h-2.8v7.4H67.1v2.8h5.1v15.7h10.9v18.3h2.8V75.4h10.9V59.7h5.1V56.9z M94.1,72.7H75v-13
	h19.1V72.7z"/>
<polygon class="st0" points="93.8,83.3 98.9,93.8 102,93.8 96.8,83.3 "/>
<polygon class="st0" points="67.1,93.8 70.1,93.8 75.3,83.3 72.2,83.3 "/>
<path class="st0" d="M228.8,96.4V56.9h-10.6L150.2,0l-41.5,34.7h4.3l37.2-31.1l63.8,53.3H201v39.5h12.4v33.7h-9.7v-9H201v11.8h27.8
	v-2.8h-12.6v-15.3h9v-2.8h-9V96.4H228.8z M203.8,59.7H226v34h-22.3V59.7z"/>
<path class="st0" d="M34.8,62.1c-0.1,0-0.2,0-0.2,0.2c0,0.1,0,0.1,0,0.1c0.3,0.4,0.7,0.8,1.1,1.1c0.1,0.1,0.2,0.1,0.3,0.1
	c0.1,0,0.2-0.1,0.3-0.1c0.6-0.4,1.3-1,1.9-1.5c0.1-0.1,0.1-0.2,0.2-0.2c0.2,0,1.1,0.8,1.1,1.1c0,0.1-0.1,0.1-0.1,0.1
	c-0.1,0-0.1,0-0.1,0c0,0-0.1,0-0.2,0c-0.1,0-0.1,0-0.2,0.1c-0.5,0.4-1,0.7-1.6,1.1c-0.1,0-0.1,0.1-0.1,0.2c0,0.1,0.1,0.2,0.2,0.2
	c0.9,0.4,1.8,0.8,2.8,1c0.2,0,0.5,0.1,0.5,0.4c0,0.3-0.2,0.9-0.6,0.9c-0.6,0-2.1-0.6-2.7-0.8c-1.6-0.7-3.4-2-4.3-3.6
	c-0.2-0.3-0.3-0.4-0.7-0.4h-1.1c-0.3,0-0.5,0.1-0.5,0.5v2c0,0.2,0.1,0.4,0.3,0.4c0.2,0,2-0.4,2.4-0.5c0.1,0,0.2,0,0.3,0
	c0.3,0,0.3,0.4,0.3,0.7c0,0.4-0.1,0.5-0.4,0.6c-1.7,0.5-3.4,0.8-5.1,1.1c-0.4,0.1-0.5,0.1-0.6,0.3c0,0.1-0.1,0.1-0.2,0.1
	c-0.2,0-0.2-0.1-0.3-0.3c-0.1-0.2-0.3-1-0.3-1.1c0-0.2,0.1-0.2,0.8-0.3c0.2,0,0.6-0.1,1-0.1c0.3,0,0.4-0.2,0.4-0.5v-6
	c0-0.4,0-0.8,0-1.2c0-0.1-0.1-0.2-0.2-0.2c-0.1,0-0.1,0-0.1,0c-0.4,0.2-1.8,1.1-2.2,1.1c-0.4,0-0.8-0.7-0.8-0.9
	c0-0.2,0.3-0.3,0.5-0.4c1.8-0.8,3.7-2,5.1-3.4c0.5-0.5,0.8-0.9,1.2-1.5c0.1-0.1,0.1-0.2,0.3-0.2c0.2,0,1,0.3,1.2,0.3
	c0.1,0,0.3,0.1,0.3,0.3c0,0.1-0.1,0.1-0.1,0.2c0,0-0.1,0.1-0.1,0.2c0,0,0,0.1,0,0.1c1.6,1.8,3.8,3.1,5.9,4.1
	c0.2,0.1,0.4,0.1,0.4,0.3c0,0.3-0.3,1-0.7,1c-0.3,0-2-1-2.4-1.2c0,0-0.1,0-0.1,0c-0.1,0-0.2,0.1-0.2,0.2c0,0.4,0,0.9,0,1.3v1.5
	c0,0.4,0,0.8,0,1.2c0,0.6-0.2,0.8-0.8,0.8c-0.4,0-0.9,0-1.3,0H34.8z M33.7,53.9c-0.1,0-0.2,0.1-0.3,0.1c-0.8,0.9-1.8,1.7-2.8,2.4
	c-0.1,0-0.1,0.1-0.1,0.1c0,0,0,0.1,0.1,0.1c0.4,0,0.7,0,1.1,0h0.8c0.3,0,0.4-0.1,0.4-0.4c0-0.2,0-0.4,0-0.7c0,0,0-0.1,0-0.2
	c0-0.2,0.1-0.2,0.3-0.2c0.2,0,0.7,0.1,1,0.1c0.2,0,0.5,0,0.5,0.2c0,0.1-0.1,0.1-0.2,0.2c-0.2,0.1-0.2,0.3-0.2,0.5
	c0,0.3,0.2,0.4,0.4,0.4h0.8c0.4,0,0.8,0,1.3,0c0.1,0,0.1-0.1,0.1-0.1c0,0,0-0.1-0.1-0.1C36,55.8,34.8,54.9,34,54
	C33.9,53.9,33.8,53.9,33.7,53.9 M35.9,58.9c0.2,0,0.4-0.2,0.4-0.4v-0.3c0-0.2-0.2-0.4-0.4-0.4h-4.6c-0.2,0-0.4,0.1-0.4,0.4v0.3
	c0,0.2,0.2,0.4,0.4,0.4H35.9z M31.4,59.9c-0.2,0-0.4,0.2-0.4,0.4v0.4c0,0.2,0.2,0.4,0.4,0.4h4.6c0.2,0,0.4-0.2,0.4-0.4v-0.4
	c0-0.2-0.2-0.4-0.4-0.4H31.4z"/>
<path class="st0" d="M28.1,75.9c2.4-0.1,4.8-0.4,7.2-0.7c1.2-0.1,2.6-0.3,3.8-0.5c0.1,0,0.1,0,0.2,0c0.2,0,0.2,0.2,0.3,0.3
	c0,0.2,0.1,0.7,0.1,0.9c0,0.4-0.2,0.4-0.6,0.4c-1,0-1.9,0-2.8,0.3c-1.3,0.4-2.2,1.3-2.9,2.5c-0.5,1-0.9,2.1-0.9,3.2
	c0,0.9,0.4,1.9,1.3,2.3c0.6,0.2,1.3,0.3,1.9,0.3c0.2,0,0.4,0,0.6,0c0.2,0,0.4,0,0.4,0.2c0,0.3-0.1,0.8-0.2,1.1
	c-0.1,0.2-0.2,0.2-0.4,0.2c-2.7,0-5-0.9-5-4c0-1.8,0.8-3.8,2.1-5.1c0.2-0.2,0.3-0.3,0.3-0.4c0-0.1-0.1-0.1-0.2-0.1
	c-0.2,0-2.2,0.3-2.6,0.3c-0.9,0.1-1.7,0.3-2.6,0.5c-0.1,0-0.2,0-0.2,0c-0.4,0-0.5-1.3-0.5-1.4C27.2,75.9,27.5,76,28.1,75.9
	 M38.4,78.6c0.1,0.1,0.6,0.7,0.6,0.9c0,0.2-0.5,0.6-0.7,0.6c-0.1,0-0.2-0.1-0.2-0.2c-0.3-0.5-0.7-0.9-1.1-1.4c0,0-0.1-0.1-0.1-0.2
	c0-0.2,0.5-0.6,0.7-0.6C37.8,77.8,38.1,78.3,38.4,78.6 M41,78.7c0,0.2-0.5,0.6-0.7,0.6c-0.1,0-0.2-0.1-0.2-0.2
	c-0.3-0.4-0.7-1-1.1-1.3c-0.1-0.1-0.1-0.1-0.1-0.2c0-0.2,0.5-0.6,0.7-0.6C39.7,77,41,78.5,41,78.7"/>
<path class="st0" d="M27.4,98c0.7-0.2,1.4-0.4,2.1-0.7c1.9-0.7,4-1.5,6.1-1.5c1.1,0,2.3,0.3,3.1,1.2c0.7,0.7,1.1,1.8,1.1,2.8
	c0,2.5-2,4.2-4.2,5.1c-0.7,0.3-2.5,0.8-3.2,0.8c-0.5,0-0.8-1.1-0.8-1.2c0-0.3,0.3-0.3,0.5-0.3c1.2-0.1,2.3-0.4,3.4-0.9
	c1.4-0.7,2.7-1.9,2.7-3.5c0-0.9-0.4-1.8-1.2-2.2c-0.4-0.3-1-0.3-1.5-0.3c-2.3,0-5,1.3-7.1,2.3c-0.1,0.1-0.3,0.1-0.4,0.1
	c-0.4,0-1-0.9-1-1.3C27,98.1,27.2,98.1,27.4,98"/>
<path class="st0" d="M33.4,112.9c0.1,0,0.2,0.1,0.2,0.2c0,0.1-0.1,0.2-0.2,0.3c-0.1,0.1-0.4,1.2-0.5,1.5c0,0.1-0.1,0.3-0.1,0.3
	c0,0.1,0.1,0.2,0.2,0.2c0.1,0,1-0.2,1.1-0.3c0.1,0,0.1,0,0.2,0c0.2,0,0.3,0.9,0.3,1.1c0,0.4-0.2,0.4-1.8,0.7
	c-0.5,0.1-0.5,0.2-0.7,0.7c-0.5,1.5-1.3,3.1-2,4.6c-0.2,0.5-0.5,1-0.8,1.4c-0.1,0.1-0.1,0.2-0.3,0.2c-0.3,0-1.2-0.4-1.2-0.7
	c0-0.1,0.2-0.4,0.3-0.6c0.7-1.2,1.5-2.7,2-4c0.1-0.2,0.4-1,0.4-1.1c0-0.1-0.1-0.2-0.2-0.2c-0.1,0-0.2,0-0.3,0
	c-0.3,0-1.5,0.1-1.7,0.1c-0.3,0-0.3-0.1-0.4-0.4c0-0.1-0.1-0.6-0.1-0.7c0-0.2,0.1-0.2,0.3-0.2c0.1,0,0.3,0,0.4,0
	c0.4,0,2.3,0,2.6-0.3c0.1-0.2,0.3-0.7,0.3-1c0.1-0.6,0.2-1.3,0.3-1.9c0-0.1,0-0.3,0.1-0.3C32.1,112.5,33.1,112.8,33.4,112.9
	 M35.8,117.7c0.1,0,0.3,0.1,0.3,0.3c0,0.1,0,0.6,0,0.9c0,0.9,0.1,2.5,0.2,3.4c0,0.3,0.1,0.4,0.4,0.5c0.7,0.2,1.1,0.4,1.7,0.8
	c0.2,0.1,1,0.5,1,0.7c0,0.3-0.5,1-0.8,1c-0.1,0-0.3-0.1-0.4-0.2c-0.3-0.2-1.2-0.9-1.6-0.9c-0.2,0-0.2,0.3-0.2,0.4
	c-0.1,1.2-1,1.7-2.2,1.7c-1.2,0-2.8-0.7-2.8-2.1c0-1.5,1.4-1.9,2.6-1.9c0.2,0,0.4,0,0.6,0c0.2,0,0.3,0,0.3-0.2c0-0.5-0.2-3.4-0.3-4
	v-0.2c0-0.2,0.1-0.3,0.3-0.3C35.2,117.6,35.6,117.6,35.8,117.7 M32.7,124.1c0,0.6,0.8,0.9,1.3,0.9c0.7,0,1-0.4,1-1.1
	c0-0.4,0-0.6-1-0.6C33.6,123.4,32.7,123.5,32.7,124.1 M39.9,117.8c0,0.3-0.7,0.9-1,0.9c-0.1,0-0.2-0.1-0.3-0.2
	c-0.5-0.7-1.3-1.6-2-2.1c-0.1-0.1-0.2-0.2-0.2-0.3c0-0.2,0.6-0.9,0.9-0.9C37.7,115.2,39.9,117.4,39.9,117.8"/>
<path class="st0" d="M33.2,133c0.1,0,0.4,0.1,0.4,0.3c0,0.1-0.1,0.2-0.1,0.2c-0.3,0.2-0.3,0.6-0.4,1.1c0,0.2-0.1,0.5-0.1,0.8
	c0,0,0,0.1,0,0.2c0,0.2,0.1,0.3,0.3,0.3c0.1,0,0.6,0,0.9,0c1.7,0,2.3,1,2.3,2.6c0,1.5-0.2,3.7-1,5c-0.6,1.1-1.7,1.7-3,1.7
	c-0.3,0-0.5,0-0.7-0.3c-0.1-0.2-0.3-0.7-0.3-0.9c0-0.1,0-0.2,0.2-0.2c0.1,0,0.4,0.1,0.8,0.1c0.9,0,1.4-0.3,1.8-1.2
	c0.5-1,0.7-2.7,0.7-3.8c0-1-0.1-1.7-1.2-1.7c-1.2,0-1.3,0.2-1.4,0.6c-0.5,2.1-1.5,4.1-2.7,5.9c-0.3,0.4-0.8,1.1-1.1,1.5
	c-0.1,0.1-0.2,0.1-0.3,0.1c-0.2,0-1-0.5-1-0.8c0-0.1,0.1-0.3,0.2-0.4c1.4-1.4,2.4-3.1,3.1-4.9c0.1-0.2,0.4-1.2,0.4-1.3
	c0-0.1-0.1-0.2-0.2-0.2c-0.3,0-1.9,0.6-2.3,0.7c-0.1,0-0.1,0-0.2,0c-0.3,0-0.6-1.2-0.6-1.4c0-0.2,0.3-0.2,0.4-0.2
	c0.7-0.1,2-0.4,2.9-0.5c0.5-0.1,0.5-0.3,0.6-0.8c0.1-0.5,0.2-1.3,0.2-1.9c0-0.2,0-0.4-0.1-0.6v-0.1c0-0.1,0.1-0.2,0.2-0.2
	C32.1,132.7,33,132.9,33.2,133 M40.1,138.5c0,0.3-0.8,0.8-1.1,0.8c-0.2,0-0.3-0.2-0.3-0.3c-0.6-1.4-1.1-2.3-2.1-3.5
	c-0.1-0.1-0.1-0.1-0.1-0.3c0-0.2,0.7-0.7,0.9-0.7C37.9,134.5,40.1,138.1,40.1,138.5 M39.3,133.6c0.1,0.1,0.5,0.6,0.5,0.7
	c0,0.2-0.5,0.7-0.7,0.7c-0.1,0-0.2-0.1-0.2-0.2c-0.4-0.4-0.8-0.9-1.2-1.3c0,0-0.1-0.1-0.1-0.2c0-0.2,0.5-0.6,0.7-0.6
	C38.5,132.7,39.2,133.5,39.3,133.6 M41.4,133.2c0,0.2-0.5,0.7-0.7,0.7c-0.1,0-0.2-0.1-0.2-0.2c-0.4-0.5-0.7-0.8-1.2-1.3
	c0,0-0.1-0.1-0.1-0.2c0-0.2,0.5-0.6,0.7-0.6C40,131.6,41.4,133.1,41.4,133.2"/>
<path class="st0" d="M36.6,153.9c0,0.1-0.2,0.2-0.3,0.3c-0.8,0.5-2.1,1.9-2.7,2.6c-0.1,0.1-0.1,0.1-0.1,0.2s0.1,0.2,0.2,0.2
	c0.1,0,0.2,0,0.3-0.1c0.3-0.1,0.6-0.1,0.9-0.1c2.1,0,4,1.3,4,3.5c0,2.8-2.5,4.3-5.1,4.3c-0.8,0-1.7-0.1-2.4-0.7
	c-0.5-0.3-0.8-0.9-0.8-1.5c0-1.1,0.9-1.8,2-1.8c1,0,2.4,0.8,2.4,2c0,0.2-0.1,0.3-0.1,0.4c0,0.1,0.1,0.2,0.2,0.2
	c0.3,0,2.4-0.8,2.4-2.9c0-1.7-1.5-2.4-3-2.4c-1.5,0-2.7,0.5-3.7,1.6c-0.6,0.6-1.2,1.2-1.7,1.9c-0.1,0.1-0.2,0.2-0.3,0.2
	c-0.3,0-1-0.7-1-0.9c0-0.2,0.2-0.3,0.3-0.4c2.1-1.8,3.9-3.8,5.7-5.8c0.1-0.1,0.2-0.2,0.2-0.3c0-0.1-0.1-0.2-0.2-0.2
	c-0.1,0-0.2,0-0.3,0c-1,0.2-2.1,0.4-3.1,0.6c-0.1,0-0.3,0.1-0.4,0.1c-0.4,0-0.4-0.9-0.4-1.2c0-0.4,0.1-0.4,0.5-0.4h0.3
	c1.1,0,3.1-0.2,4.2-0.6c0.2,0,0.4-0.1,0.6-0.1C35.8,152.6,36.6,153.7,36.6,153.9 M32.7,162.1c-0.4,0-0.8,0.3-0.8,0.7
	c0,0.7,0.9,1,1.5,1c0.3,0,0.5-0.4,0.5-0.7C33.8,162.5,33.3,162.1,32.7,162.1"/>
<path class="st0" d="M40.7,172.2c0,1.2-1,2.2-2.3,2.2c-1.3,0-2.3-1-2.3-2.2c0-1.3,1-2.3,2.3-2.3C39.7,169.9,40.7,170.9,40.7,172.2
	 M37,172.2c0,0.8,0.7,1.5,1.5,1.5c0.8,0,1.5-0.7,1.5-1.5c0-0.8-0.7-1.5-1.5-1.5C37.6,170.6,37,171.3,37,172.2"/>
<path class="st0" d="M8.3,55h3.8c0.7,0,1.3,0,2,0c0.3,0,0.3,0.2,0.3,0.6c0,0.4,0,0.6-0.3,0.6c-0.7,0-1.3,0-2,0H2.3c-0.6,0-1.3,0-2,0
	C0,56.2,0,56,0,55.6C0,55.1,0,55,0.3,55c0.7,0,1.3,0,2,0h3.8c0.3,0,0.4-0.1,0.4-0.5c0-0.4,0-0.7-0.1-1.1c0,0,0-0.1,0-0.1
	c0-0.2,0.1-0.2,0.3-0.2c0.2,0,1,0.1,1.2,0.1c0.1,0,0.3,0,0.3,0.2c0,0.1-0.1,0.1-0.2,0.2c-0.2,0.1-0.2,0.3-0.2,0.9
	C7.9,54.9,8,55,8.3,55 M4.7,63.8c-0.1,0-0.2,0.1-0.3,0.2c-0.8,1-1.9,2.1-2.9,2.9C1.4,67,1.1,67.2,1,67.2c-0.2,0-0.8-0.4-0.8-0.7
	c0-0.2,0.2-0.3,0.4-0.4c1-0.7,2.3-1.9,3-2.9c0.1-0.1,0.1-0.2,0.3-0.2c0.1,0,0.5,0.2,0.6,0.3c0.5,0.2,0.6,0.3,0.6,0.4
	C5.1,63.8,4.8,63.8,4.7,63.8 M4,62c-0.1,0-0.2,0.1-0.2,0.2c-0.1,0.1-0.2,0.2-0.6,0.2c-0.5,0-0.7,0-0.7-0.3c0-0.3,0-0.6,0-0.9v-2.2
	c0-0.3,0-0.6,0-0.8c0-0.5,0.2-0.7,0.7-0.7c0.4,0,0.9,0,1.3,0H10c0.4,0,0.8,0,1,0c0.7,0,0.9,0.1,0.9,0.7c0,0.3,0,0.6,0,0.8v2.2
	c0,0.3,0,0.6,0,0.9c0,0.3-0.2,0.3-0.7,0.3c-0.5,0-0.6,0-0.6-0.2c-0.1-0.1-0.1-0.2-0.2-0.2H8.3c-0.3,0-0.5,0.1-0.5,0.4v2.8
	c0,0.3,0,0.7,0,1.1c0,1.5-1.5,1.5-2.6,1.5c-0.2,0-0.6,0-0.7-0.2S4.3,67,4.3,66.8c0-0.2,0.1-0.4,0.3-0.4c0.1,0,0.4,0,0.8,0
	c1.1,0,1.1-0.1,1.1-1.2v-2.8c0-0.3-0.1-0.4-0.5-0.4H4z M10.2,60.9c0.3,0,0.4-0.2,0.4-0.5v-1.3c0-0.3-0.2-0.4-0.4-0.5h-6
	c-0.3,0-0.4,0.2-0.5,0.5v1.3c0,0.3,0.2,0.4,0.5,0.5H10.2z M13.2,67.1c-0.2,0-0.3-0.2-0.4-0.3c-1.1-1.3-1.6-1.8-2.9-2.8
	c-0.1-0.1-0.2-0.2-0.2-0.4c0-0.2,0.6-0.7,0.8-0.7c0.1,0,0.3,0.1,0.4,0.2c0.6,0.5,1.2,1,1.8,1.6c0.2,0.2,1.5,1.4,1.5,1.7
	C14,66.6,13.4,67.1,13.2,67.1"/>
<path class="st0" d="M5.1,73.9c0.2,0,0.4,0,0.6,0c0.4,0,0.4,0.2,0.4,0.6c0.1,1.1,0.4,2.2,0.6,3.3c0,0.2,0.1,0.4,0.4,0.4
	c0.3,0,3.1-1.7,3.5-1.9c0.1-0.1,0.3-0.2,0.4-0.2c0.2,0,0.9,1.2,0.9,1.4c0,0.1-0.2,0.2-0.3,0.2c-1.4,0.4-3.7,1.7-5,2.4
	c-1.1,0.6-3,1.7-3,3.2c0,0.5,0.3,0.9,0.7,1.1c0.8,0.5,1.9,0.6,2.7,0.6c1.1,0,3.3-0.2,4.3-0.4c0,0,0.1,0,0.2,0c0.2,0,0.2,0.6,0.2,0.9
	c0,0.3,0,0.5-0.3,0.6c-0.6,0.1-3.8,0.3-4.6,0.3c-1.2,0-2.2-0.1-3.3-0.7c-0.9-0.5-1.4-1.4-1.4-2.4c0-1.8,1.6-3,3-3.8
	c0.2-0.1,0.3-0.2,0.3-0.4c0-0.1,0-0.2,0-0.3c-0.3-0.7-0.7-2.2-0.8-3c-0.1-0.4-0.2-0.8-0.3-1.2c0,0-0.1-0.1-0.1-0.2
	C4.2,74,4.7,74,5.1,73.9"/>
<path class="st0" d="M14.1,94.3c0,0.3-0.6,1-1,1c-0.1,0-0.2-0.1-0.3-0.2c-0.7-0.9-1.5-1.6-2.5-2.2c-0.1-0.1-0.3-0.1-0.3-0.3
	c0-0.3,0.6-0.9,0.9-0.9C11.3,91.6,14.1,93.9,14.1,94.3"/>
<path class="st0" d="M7.2,106.2c0.3,0.1,0.5,0.1,0.5,0.3c0,0.1-0.1,0.2-0.2,0.2c-0.2,0.1-0.2,0.2-0.3,0.5c0,0.1-0.2,0.7-0.2,0.8
	c0,0.1,0.1,0.3,0.3,0.3c0,0,0.2,0,0.2,0c0.6-0.1,1.5-0.4,2.1-0.6c0.1,0,0.2-0.1,0.3-0.1c0.3,0,0.4,1,0.4,1c0,0.2-0.2,0.3-0.5,0.4
	c-0.8,0.2-1.8,0.4-2.6,0.5c-0.2,0-0.3,0.1-0.4,0.3c0,0.1-0.1,0.5-0.1,0.6c0,0.1,0.1,0.2,0.3,0.2c0,0,0.1,0,0.1,0
	c0.4,0,0.9-0.1,1.3-0.1c2.5,0,4.7,1.3,4.7,4c0,3.7-4.6,5-5.1,5c-0.3,0-0.6-0.8-0.6-1c0-0.2,0.2-0.2,0.4-0.2c0.6-0.1,1.2-0.4,1.7-0.7
	c1.3-0.6,2.2-1.5,2.2-3c0-2.1-1.8-2.6-2-2.6c-0.3,0-0.4,0.3-0.5,0.5c-0.5,1.1-1.4,2.3-2.2,3.2c-0.1,0.1-0.2,0.2-0.2,0.3
	c0,0.1,0.1,0.6,0.1,0.7c0,0,0,0.1,0,0.1c0,0.3-0.7,0.6-1,0.6c-0.2,0-0.2-0.1-0.3-0.3c0-0.1,0-0.2-0.2-0.2c-0.1,0-0.1,0-0.2,0.1
	c-0.7,0.5-1.7,1.1-2.6,1.1c-1.1,0-1.7-0.8-1.7-1.8c0-2.2,2.1-4.2,4-5.1c0.4-0.2,0.4-0.3,0.4-1c0,0,0-0.1,0-0.1
	c0-0.2-0.1-0.3-0.3-0.3c-0.2,0-1.4,0.2-2.3,0.2c-0.6,0-0.8,0-0.8-0.7c0-0.6,0.1-0.6,0.4-0.6c0.2,0,0.5,0,0.7,0c0.6,0,1.2,0,1.7-0.1
	c0.3,0,0.6,0,0.7-0.4c0,0,0.3-1.8,0.3-2c0-0.1,0.1-0.3,0.2-0.3C6.4,105.9,7.1,106.2,7.2,106.2 M2.4,116.2c0,0.3,0.1,0.6,0.5,0.6
	c0.7,0,1.8-0.7,2.3-1.1c0.2-0.1,0.2-0.3,0.2-0.5c0,0,0-1,0-1.7v-0.5c0-0.1,0-0.2-0.2-0.2C4.9,112.7,2.4,114.5,2.4,116.2 M6.8,112
	c-0.1,0.1-0.1,0.4-0.1,0.7v0.6c0,0.3,0,0.8,0.2,0.8c0.3,0,1.4-2,1.4-2.2c0-0.1-0.1-0.1-0.2-0.1C7.8,111.7,7,111.8,6.8,112"/>
<path class="st0" d="M7.1,125.1c0.3,0,1.3,0,1.3,0.3c0,0.1-0.1,0.1-0.1,0.2c-0.1,0.1-0.2,0.2-0.2,0.6c0,0.3,0,0.8,0,1.2v0.1
	c0,0.3,0.2,0.4,0.5,0.4c0.1,0,2-0.1,2.4-0.1c0.5,0,1.6-0.1,2-0.1c0.3,0,0.3,0.2,0.3,0.7c0,0.8-0.2,0.8-0.4,0.8c-0.2,0-1.3-0.1-2-0.1
	c-0.4,0-2.3,0-2.5,0.1c-0.2,0.1-0.3,0.3-0.3,0.5c0,1.3,0,1.3,0.2,1.6c0.3,0.6,0.5,1.6,0.5,2.3c0,2.7-1.8,5.5-2.4,5.5
	c-0.1,0-1.2-0.3-1.2-0.6c0-0.1,0.3-0.3,0.3-0.4c0.8-0.8,1.4-2,1.4-2.2c0-0.1-0.1-0.1-0.1-0.1s-0.1,0-0.2,0.1
	c-0.2,0.1-0.4,0.1-0.5,0.1c-1.4,0-1.9-1.5-1.9-2.6c0-1.4,0.6-2.9,2.2-3c0.1,0,0.3,0,0.3-0.2c0-0.8-0.1-1-0.4-1
	c-0.5,0-4.3,0.4-4.9,0.5c-0.1,0-0.2,0-0.2,0c-0.3,0-0.3-0.2-0.3-0.4c-0.1-0.2-0.1-0.6-0.1-0.8c0-0.3,0.1-0.3,0.6-0.3
	c1.6-0.1,3.1-0.2,4.7-0.2c0.3,0,0.6-0.1,0.6-0.5c0-0.5-0.1-1.6-0.2-2.2c0,0,0-0.1,0-0.1c0-0.1,0.1-0.2,0.2-0.2
	C6.8,125.1,7,125.1,7.1,125.1 M5.5,133.4c0,0.6,0.2,1.5,0.9,1.5c0.8,0,1-0.9,1-1.5c0-0.6-0.2-1.6-1-1.6
	C5.7,131.8,5.5,132.8,5.5,133.4"/>
<path class="st0" d="M14.3,144.6c0,1.2-1,2.2-2.3,2.2c-1.3,0-2.3-1-2.3-2.2c0-1.3,1-2.3,2.3-2.3C13.3,142.3,14.3,143.4,14.3,144.6
	 M10.5,144.6c0,0.8,0.7,1.5,1.5,1.5c0.8,0,1.5-0.7,1.5-1.5c0-0.8-0.7-1.5-1.5-1.5C11.2,143.1,10.5,143.8,10.5,144.6"/>
<rect x="261" y="149.8" class="st0" width="1.9" height="12.4"/>
<path class="st0" d="M176.4,149.4c-3,0-5.4,2.4-5.4,5.4v2.4c0,3,2.4,5.4,5.4,5.4c3,0,5.4-2.4,5.4-5.4v-2.4
	C181.9,151.8,179.4,149.4,176.4,149.4 M176.4,151.2c2,0,3.6,1.6,3.6,3.6v2.4c0,2-1.6,3.6-3.6,3.6c-2,0-3.6-1.6-3.6-3.6v-2.4
	C172.8,152.8,174.5,151.2,176.4,151.2"/>
<path class="st0" d="M226.1,157c0,2-1.6,3.6-3.6,3.6c-2,0-3.6-1.6-3.6-3.6v-7.4H217v7.4c0,3,2.4,5.4,5.4,5.4s5.4-2.4,5.4-5.4v-7.4
	h-1.8V157z"/>
<polygon class="st0" points="249.3,149.8 239.4,149.8 239.4,151.6 245.7,151.6 239.6,162.2 249.5,162.2 249.5,160.4 243.1,160.4 "/>
<polygon class="st0" points="133.4,160.4 127.1,160.4 127.1,162.2 137,162.2 130.8,151.6 137.1,151.6 137.1,149.8 127.2,149.8 "/>
<polygon class="st0" points="157.6,155.1 150.5,155.1 150.5,149.8 148.6,149.8 148.6,162.2 150.5,162.2 150.5,156.9 157.6,156.9 
	157.6,162.2 159.5,162.2 159.5,149.8 157.6,149.8 "/>
<rect x="193.4" y="149.8" class="st0" width="1.9" height="12.4"/>
<polygon class="st0" points="202.9,149.8 196.8,156 202.9,162.2 205.5,162.2 199.4,156 205.5,149.8 "/>
<path class="st0" d="M90,105.2c-0.6,1.8-1.5,4.1-2.5,6.5c-1.5-0.3-3.2-0.3-4.8,0c-6.6,1.2-11.7,6.9-12.9,11.7c-0.7,3,0,5.6,2.1,7.3
	c1.5,1.2,3.2,1.5,4.9,1c3.7-1.1,7.6-6.3,11.9-15.9c0.1-0.2,0.2-0.5,0.3-0.7c2.1,0.9,4,2.6,5.6,4.9c6.2,8.8-3.4,25.2-12.5,37.4
	c-1.1,1.5-2.2,2.9-3.4,4.4h3.5c11.4-14.7,21.9-32.9,14.6-43.3c-1.9-2.8-4.3-4.8-6.8-5.9c1.2-2.8,2.1-5.4,2.8-7.3H90z M86.2,114.6
	c-5.1,11.3-8.6,13.9-10.2,14.4c-0.9,0.3-1.6,0.1-2.3-0.5c-1.6-1.2-1.5-3.1-1.2-4.4c1-3.8,5.3-8.6,10.7-9.6c0.7-0.1,1.3-0.2,1.9-0.2
	c0.4,0,0.8,0,1.2,0.1C86.3,114.4,86.2,114.5,86.2,114.6"/>
</svg>
